<svg width="35" height="35" viewBox="0 0 35 35" fill="none" xmlns="http://www.w3.org/2000/svg">
<path d="M19.3517 19.3572H16.5098V10.8315H19.3517V19.3572ZM19.3517 25.0411H16.5098V22.1992H19.3517V25.0411ZM17.9307 3.72668C16.0647 3.72668 14.2169 4.09423 12.493 4.80833C10.769 5.52242 9.20252 6.5691 7.88304 7.88858C5.21822 10.5534 3.72114 14.1677 3.72114 17.9363C3.72114 21.7049 5.21822 25.3192 7.88304 27.984C9.20252 29.3035 10.769 30.3501 12.493 31.0642C14.2169 31.7783 16.0647 32.1459 17.9307 32.1459C21.6994 32.1459 25.3136 30.6488 27.9784 27.984C30.6432 25.3192 32.1403 21.7049 32.1403 17.9363C32.1403 16.0702 31.7728 14.2225 31.0587 12.4985C30.3446 10.7745 29.2979 9.20806 27.9784 7.88858C26.659 6.5691 25.0925 5.52242 23.3685 4.80833C21.6445 4.09423 19.7968 3.72668 17.9307 3.72668V3.72668Z" fill="#EF665B"/>
</svg>
