<?xml version="1.0" encoding="UTF-8"?>
<svg width="14px" height="14px" viewBox="0 0 14 14" version="1.1" xmlns="http://www.w3.org/2000/svg" xmlns:xlink="http://www.w3.org/1999/xlink">
    <!-- Generator: Sketch 59.1 (86144) - https://sketch.com -->
    <title>Group 18</title>
    <desc>Created with Sketch.</desc>
    <g id="Page-1" stroke="none" stroke-width="1" fill="none" fill-rule="evenodd">
        <g id="Course-single-buy" transform="translate(-991.000000, -668.000000)">
            <g id="Group-24" transform="translate(385.000000, 231.000000)">
                <g id="Group-16" transform="translate(344.000000, 117.000000)">
                    <g id="Group-23" transform="translate(25.000000, 213.000000)">
                        <g id="Group-20" transform="translate(120.000000, 107.000000)">
                            <g id="Group-19">
                                <g id="Group-18" transform="translate(117.000000, 0.000000)">
                                    <circle id="Oval" fill="#73C4FE" cx="7" cy="7" r="7"></circle>
                                    <g id="check" transform="translate(1.000000, 1.000000)">
                                        <polygon id="Path" points="0 0 12 0 12 12 0 12"></polygon>
                                        <path d="M4.46971053,7.84890656 L2.81289167,6.19324056 C2.6266786,6.00715706 2.32587287,6.00715706 2.1396598,6.19324056 C1.95344673,6.37932406 1.95344673,6.67992048 2.1396598,6.86600398 L4.13548195,8.86043738 C4.32169502,9.04652087 4.62250075,9.04652087 4.80871382,8.86043738 L9.8603402,3.81232604 C10.0465533,3.62624254 10.0465533,3.32564612 9.8603402,3.13956262 C9.67412713,2.95347913 9.3733214,2.95347913 9.18710833,3.13956262 L4.46971053,7.84890656 Z" id="🔹-Icon-Color" fill="#FFFFFF" fill-rule="nonzero"></path>
                                    </g>
                                </g>
                            </g>
                        </g>
                    </g>
                </g>
            </g>
        </g>
    </g>
</svg>