<svg width="35" height="35" viewBox="0 0 35 35" fill="none" xmlns="http://www.w3.org/2000/svg">
<path fill-rule="evenodd" clip-rule="evenodd" d="M17.9307 2.22583C9.29841 2.22583 2.30018 9.22405 2.30018 17.8564C2.30018 26.4887 9.29841 33.4869 17.9307 33.4869C26.5631 33.4869 33.5613 26.4887 33.5613 17.8564C33.5613 9.22405 26.5631 2.22583 17.9307 2.22583ZM24.7059 15.2134C24.8306 15.0708 24.9256 14.9047 24.9852 14.7248C25.0448 14.545 25.0679 14.355 25.053 14.1661C25.0381 13.9772 24.9856 13.7932 24.8985 13.6249C24.8115 13.4567 24.6916 13.3075 24.5461 13.1862C24.4005 13.0649 24.2322 12.9739 24.0509 12.9186C23.8697 12.8634 23.6793 12.8449 23.4908 12.8643C23.3023 12.8837 23.1196 12.9406 22.9535 13.0317C22.7873 13.1228 22.641 13.2461 22.5233 13.3946L16.4131 20.7253L13.2515 17.5622C12.9835 17.3034 12.6246 17.1602 12.252 17.1634C11.8794 17.1667 11.523 17.3161 11.2596 17.5796C10.9961 17.843 10.8467 18.1994 10.8435 18.572C10.8402 18.9445 10.9834 19.3035 11.2423 19.5715L15.5052 23.8344C15.6448 23.9739 15.8119 24.0828 15.996 24.1542C16.18 24.2255 16.3769 24.2577 16.5741 24.2488C16.7713 24.2398 16.9644 24.1899 17.1413 24.1021C17.3181 24.0144 17.4747 23.8908 17.6011 23.7392L24.7059 15.2134Z" fill="#393A37"/>
</svg>
