<svg width="35" height="35" viewBox="0 0 35 35" fill="none" xmlns="http://www.w3.org/2000/svg">
<path d="M17.9307 2.74445C9.69139 2.74445 3.01066 9.42517 3.01066 17.6645C3.01066 25.9039 9.69139 32.5846 17.9307 32.5846C26.1701 32.5846 32.8508 25.9039 32.8508 17.6645C32.8508 9.42517 26.1701 2.74445 17.9307 2.74445ZM18.9965 24.8581C18.9965 25.0047 18.8766 25.1246 18.73 25.1246H17.1314C16.9849 25.1246 16.865 25.0047 16.865 24.8581V15.7995C16.865 15.653 16.9849 15.5331 17.1314 15.5331H18.73C18.8766 15.5331 18.9965 15.653 18.9965 15.7995V24.8581ZM17.9307 13.4016C17.5124 13.3931 17.1141 13.2209 16.8213 12.9221C16.5285 12.6232 16.3645 12.2215 16.3645 11.8031C16.3645 11.3847 16.5285 10.9829 16.8213 10.6841C17.1141 10.3852 17.5124 10.213 17.9307 10.2045C18.3491 10.213 18.7474 10.3852 19.0402 10.6841C19.333 10.9829 19.497 11.3847 19.497 11.8031C19.497 12.2215 19.333 12.6232 19.0402 12.9221C18.7474 13.2209 18.3491 13.3931 17.9307 13.4016Z" fill="#509AF8"/>
</svg>
